<?xml version="1.0" encoding="UTF-8"?> <!-- Generator: Adobe Illustrator 23.0.2, SVG Export Plug-In . SVG Version: 6.00 Build 0) --> <svg xmlns="http://www.w3.org/2000/svg" xmlns:xlink="http://www.w3.org/1999/xlink" id="Layer_1" x="0px" y="0px" viewBox="0 0 200 200" style="enable-background:new 0 0 200 200;" xml:space="preserve"> <style type="text/css"> .st0{fill:none;stroke:#191747;stroke-width:3;stroke-linejoin:round;} .st1{fill:none;stroke:#191747;stroke-width:3;} .st2{fill:none;stroke:#191747;stroke-miterlimit:10;} .st3{fill:none;stroke:#191747;stroke-width:3;stroke-miterlimit:10;} .st4{fill:none;} .st5{fill:none;stroke:#C22127;stroke-width:3;stroke-miterlimit:10;} </style> <g> <g> <path class="st0" d="M119.4,155.7c-8.6,4-18.2,6.2-28.3,6.2c-37.2,0-67.4-30.2-67.4-67.4C23.7,57.2,53.9,27,91.2,27 c37.2,0,67.4,30.2,67.4,67.4c0,6.8-1,13.3-2.9,19.5"></path> </g> <g> <path class="st1" d="M125,119.5c-8.8-2.5-18.2-4.6-19.6-4.6"></path> <path class="st1" d="M75.1,115.3c-2.7,0-31.5,7.8-31.5,10.5v15.6"></path> <path class="st2" d="M104.7,122.7c0.4-3,0.8-12,1.3-14.9c2.8-1.8,4.8-4.4,5-6.6c0.3-2.8,0.7-5.5,1-8.3c0.4,0.4,0.9,0.7,1.5,0.8 c1.3,0.1,2.5-0.8,2.6-2.1l1.3-12.7c0.1-1.3-0.8-2.5-2.1-2.6c-0.5-0.1-1,0.1-1.4,0.3c0.3-2.4,0.6-4.8,0.8-7.3 c0.2-3.3,1.9-12.2-4.5-17.9c-9.2-9.1-29.6-9.1-38.8,0c-6.4,5.7-4.7,14.5-4.5,17.9c0.3,2.4,0.6,4.8,0.8,7.3 c-0.4-0.2-0.9-0.3-1.4-0.3c-1.3,0.1-2.3,1.3-2.1,2.6l1.3,12.7c0.1,1.3,1.3,2.3,2.6,2.1c0.6-0.1,1.1-0.3,1.5-0.8 c0.3,2.8,0.6,5.5,1,8.3c0.2,2.2,2.2,4.8,5,6.6c0.4,3,0.8,11.9,1.3,14.9c0,0,5.1,11.5,12.8,11.4C98.9,134,104.7,122.7,104.7,122.7z "></path> <path class="st2" d="M67.6,75.8h1.8V62.3c0-2.5,2.1-4.6,4.6-4.6l23.8,8.1l8.8-8.1c2.5,0,4.6,2.1,4.6,4.6v13.4h2.7 c0.3-2.2,0.5-4.3,0.7-6.5c0.2-3.3,1.9-12.2-4.5-17.9c-9.2-9.1-29.6-9.1-38.8,0c-6.4,5.7-4.7,14.5-4.5,17.9 C67.1,71.4,67.3,73.6,67.6,75.8z"></path> <path class="st3" d="M70.4,85.2V62.3c0-2.5,2.1-4.6,4.6-4.6l14.7,9.6l-1.5-6.7l15.9,3.1l2.5-6c2.5,0,4.6,2.1,4.6,4.6v22.9"></path> <path class="st3" d="M104.7,122.7c0.4-3,0.8-12,1.3-14.9c2.8-1.8,4.8-4.4,5-6.6c0.3-2.8,0.7-5.5,1-8.3c0.4,0.4,0.9,0.7,1.5,0.8 c1.3,0.1,2.5-0.8,2.6-2.1l1.3-12.7c0.1-1.3-0.8-2.5-2.1-2.6c-0.5-0.1-1,0.1-1.4,0.3c0.3-2.4,0.6-4.8,0.8-7.3 c0.2-3.3,1.9-12.2-4.5-17.9c-9.2-9.1-29.6-9.1-38.8,0c-6.4,5.7-4.7,14.5-4.5,17.9c0.3,2.4,0.6,4.8,0.8,7.3 c-0.4-0.2-0.9-0.3-1.4-0.3c-1.3,0.1-2.3,1.3-2.1,2.6l1.3,12.7c0.1,1.3,1.3,2.3,2.6,2.1c0.6-0.1,1.1-0.3,1.5-0.8 c0.3,2.8,0.6,5.5,1,8.3c0.2,2.2,2.2,4.8,5,6.6c0.4,3,0.8,11.9,1.3,14.9c0,0,3.2,11.4,12.8,11.4 C101.4,134.1,104.7,122.7,104.7,122.7z"></path> <polyline class="st3" points="96.8,112.6 85.3,112.6 75.2,107.5 "></polyline> </g> <path class="st4" d="M156.7,94.4c0,36.2-29.3,65.5-65.5,65.5s-65.5-29.3-65.5-65.5S55,28.9,91.2,28.9 C127.4,28.9,156.7,58.3,156.7,94.4z"></path> <g> <path class="st3" d="M170.2,160.8c-10.1,13.5-29.3,16.3-42.8,6.1c-13.5-10.1-16.3-29.3-6.2-42.8s29.3-16.3,42.8-6.2 C177.5,128.1,180.3,147.2,170.2,160.8z"></path> </g> <g> <polyline class="st5" points="137,149.8 131.9,145.7 126.8,141.6 131.9,137.6 137,133.5 "></polyline> <polyline class="st5" points="154.4,149.8 159.5,145.7 164.6,141.6 159.5,137.6 154.4,133.5 "></polyline> <line class="st5" x1="149.7" y1="129" x2="142.3" y2="154.3"></line> </g> </g> </svg> 